<svg xmlns="http://www.w3.org/2000/svg" height="20" width="20" viewBox="0 0 32 32"><title>hide 3</title><g stroke-linejoin="miter" fill="#000000" stroke-linecap="butt" class="nc-icon-wrapper"><path d="m11.757,20.243c-1.086-1.086-1.757-2.586-1.757-4.243,0-3.314,2.686-6,6-6,1.657,0,3.157.672,4.243,1.757" fill="none" stroke="#000000" stroke-linecap="square" stroke-miterlimit="10" stroke-width="2" data-color="color-2"></path><path d="m21.991,15.667c.006.11.009.221.009.333,0,3.314-2.686,6-6,6-.115,0-.229-.003-.342-.01" fill="none" stroke="#000000" stroke-linecap="square" stroke-miterlimit="10" stroke-width="2" data-color="color-2"></path><path d="m8.322,23.681c-4.431-2.954-6.322-7.681-6.322-7.681,0,0,4-10,14-10,3.125,0,5.664.977,7.678,2.319" fill="none" stroke="#000000" stroke-miterlimit="10" stroke-width="2"></path><path d="m26.706,10.951c2.281,2.516,3.294,5.049,3.294,5.049,0,0-4,10-14,10-1.387,0-2.658-.192-3.819-.523" fill="none" stroke="#000000" stroke-linecap="square" stroke-miterlimit="10" stroke-width="2"></path><line x1="2" y1="30" x2="30" y2="2" fill="none" stroke="#000000" stroke-linecap="square" stroke-miterlimit="10" stroke-width="2" data-color="color-2"></line></g></svg>